<svg width="621" height="574" viewBox="0 0 621 574" fill="none" xmlns="http://www.w3.org/2000/svg">
<g clip-path="url(#clip0_8310_11)">
<path d="M130.984 459.875H409C415.531 459.875 421.794 462.469 426.413 467.087C431.031 471.706 433.625 477.969 433.625 484.5C433.625 491.031 431.031 497.294 426.413 501.913C421.794 506.531 415.531 509.125 409 509.125H88.875C84.5759 509.126 80.3513 508.002 76.6215 505.864C72.8917 503.726 69.7867 500.648 67.6152 496.938C65.4437 493.228 64.2815 489.013 64.2441 484.714C64.2067 480.415 65.2954 476.181 67.402 472.434L289.027 78.4337C291.168 74.6204 294.285 71.446 298.059 69.2366C301.833 67.0273 306.127 65.8628 310.5 65.8628C314.873 65.8628 319.167 67.0273 322.941 69.2366C326.715 71.446 329.832 74.6204 331.973 78.4337L553.598 472.434C556.798 478.129 557.605 484.862 555.841 491.152C554.077 497.441 549.886 502.773 544.191 505.973C538.496 509.173 531.763 509.98 525.473 508.216C519.184 506.452 513.852 502.261 510.652 496.566L310.5 140.735L130.984 459.875ZM285.875 262.875C285.875 256.344 288.469 250.081 293.087 245.462C297.706 240.844 303.969 238.25 310.5 238.25C317.031 238.25 323.294 240.844 327.912 245.462C332.531 250.081 335.125 256.344 335.125 262.875V336.75C335.125 343.281 332.531 349.544 327.912 354.162C323.294 358.781 317.031 361.375 310.5 361.375C303.969 361.375 297.706 358.781 293.087 354.162C288.469 349.544 285.875 343.281 285.875 336.75V262.875ZM310.5 435.25C303.969 435.25 297.706 432.656 293.087 428.038C288.469 423.419 285.875 417.156 285.875 410.625C285.875 404.094 288.469 397.831 293.087 393.212C297.706 388.594 303.969 386 310.5 386C317.031 386 323.294 388.594 327.912 393.212C332.531 397.831 335.125 404.094 335.125 410.625C335.125 417.156 332.531 423.419 327.912 428.038C323.294 432.656 317.031 435.25 310.5 435.25Z" fill="#4A5568"/>
</g>
<defs>
<clipPath id="clip0_8310_11">
<rect width="621" height="574" fill="white"/>
</clipPath>
</defs>
</svg>
