<svg width="621" height="574" viewBox="0 0 621 574" fill="none" xmlns="http://www.w3.org/2000/svg">
<g clip-path="url(#clip0_8308_6)">
<path fill-rule="evenodd" clip-rule="evenodd" d="M593.3 286.5C593.3 442.687 466.687 569.3 310.5 569.3C154.314 569.3 27.7 442.687 27.7 286.5C27.7 130.314 154.314 3.70001 310.5 3.70001C466.687 3.70001 593.3 130.314 593.3 286.5ZM310.5 180.45C297.46 180.45 286.024 187.492 279.858 198.151C270.082 215.05 248.458 220.825 231.558 211.049C214.659 201.273 208.884 179.649 218.66 162.749C236.943 131.143 271.202 109.75 310.5 109.75C369.071 109.75 416.55 157.23 416.55 215.8C416.55 261.975 387.04 301.259 345.85 315.816V321.85C345.85 341.374 330.024 357.2 310.5 357.2C290.977 357.2 275.15 341.374 275.15 321.85V286.5C275.15 266.977 290.977 251.15 310.5 251.15C330.024 251.15 345.85 235.323 345.85 215.8C345.85 196.277 330.024 180.45 310.5 180.45ZM310.5 463.25C330.024 463.25 345.85 447.424 345.85 427.9C345.85 408.376 330.024 392.55 310.5 392.55C290.977 392.55 275.15 408.376 275.15 427.9C275.15 447.424 290.977 463.25 310.5 463.25Z" fill="#4A5568"/>
</g>
<defs>
<clipPath id="clip0_8308_6">
<rect width="621" height="574" fill="white"/>
</clipPath>
</defs>
</svg>
